<?xml version="1.0" encoding="UTF-8"?>
<svg width="39px" height="32px" viewBox="0 0 39 32" version="1.1" xmlns="http://www.w3.org/2000/svg" xmlns:xlink="http://www.w3.org/1999/xlink">
    <!-- Generator: Sketch 42 (36781) - http://www.bohemiancoding.com/sketch -->
    <title>Fill 1</title>
    <desc>Created with Sketch.</desc>
    <defs></defs>
    <g id="Welcome" stroke="none" stroke-width="1" fill="none" fill-rule="evenodd">
        <g id="iPhone-7-Copy-7" transform="translate(-44.000000, -134.000000)" fill="#E50E46">
            <g id="Group-2" transform="translate(44.000000, 133.000000)">
                <g id="Heart">
                    <path d="M18.0503,30.6565 C18.8833,31.0305 19.8403,31.0325 20.6753,30.6605 C27.2663,27.7275 31.9763,23.9445 34.6743,19.4175 C36.7943,15.8595 37.0153,12.8805 37.0113,11.7645 C37.0113,11.7485 37.0123,11.7315 37.0133,11.7155 C37.0223,11.5495 37.0263,11.3885 37.0263,11.2405 C37.0263,6.5275 33.1933,2.6935 28.4813,2.6935 C24.5303,2.6935 21.1183,5.3705 20.1823,9.2045 C20.0893,9.5835 19.7493,9.8495 19.3593,9.8495 C18.9693,9.8495 18.6303,9.5835 18.5373,9.2045 C17.6013,5.3705 14.1883,2.6925 10.2383,2.6925 C5.5263,2.6925 1.6923,6.5255 1.6923,11.2375 C1.6923,11.3855 1.6973,11.5405 1.7063,11.7105 C1.7073,11.7275 1.7073,11.7435 1.7073,11.7595 C1.7023,13.6855 2.4623,23.6485 18.0503,30.6565 L18.0503,30.6565 Z M19.3673,32.6305 C18.6813,32.6305 17.9953,32.4875 17.3563,32.2005 L17.3563,32.2005 C0.8773,24.7925 0.0153,13.9475 0.0153,11.7795 C0.0053,11.5875 0.0003,11.4095 0.0003,11.2375 C0.0003,5.5925 4.5923,0.9995 10.2383,0.9995 C14.1633,0.9995 17.6453,3.2065 19.3593,6.5805 C21.0743,3.2075 24.5563,1.0005 28.4813,1.0005 C34.1263,1.0005 38.7193,5.5945 38.7193,11.2405 C38.7193,11.4125 38.7143,11.5955 38.7043,11.7835 C38.7053,13.0585 38.4503,16.3875 36.1283,20.2835 C33.2483,25.1175 28.2803,29.1285 21.3633,32.2075 C20.7283,32.4895 20.0483,32.6305 19.3673,32.6305 L19.3673,32.6305 Z" id="Fill-1"></path>
                </g>
            </g>
        </g>
    </g>
</svg>